<svg xmlns="http://www.w3.org/2000/svg" viewBox="0 0 192 192">
  <defs>
    <linearGradient id="bg-gradient" x1="0%" y1="0%" x2="100%" y2="100%">
      <stop offset="0%" style="stop-color:#10b981"/>
      <stop offset="100%" style="stop-color:#059669"/>
    </linearGradient>
  </defs>
  
  <!-- Background -->
  <rect width="192" height="192" rx="40" fill="url(#bg-gradient)"/>
  
  <!-- Dollar sign with plus -->
  <g fill="white">
    <!-- Dollar sign -->
    <path d="M96 40 L96 48 C115 50 130 62 130 80 C130 95 118 105 100 108 L100 125 C108 124 115 120 120 114 L132 126 C124 136 112 142 100 144 L100 152 L92 152 L92 144 C72 142 56 128 56 108 C56 92 68 82 88 78 L88 62 C80 63 73 68 68 74 L56 62 C64 52 76 46 88 44 L88 40 Z M88 94 C78 96 72 102 72 108 C72 116 78 122 88 124 Z M100 92 C112 90 120 84 120 78 C120 70 112 64 100 62 Z"/>
    
    <!-- Plus icon (top right) -->
    <rect x="140" y="32" width="6" height="24" rx="3"/>
    <rect x="131" y="41" width="24" height="6" rx="3"/>
  </g>
</svg>










