<svg xmlns="http://www.w3.org/2000/svg" viewBox="0 0 32 32">
  <defs>
    <linearGradient id="bg" x1="0%" y1="0%" x2="100%" y2="100%">
      <stop offset="0%" style="stop-color:#10b981"/>
      <stop offset="100%" style="stop-color:#059669"/>
    </linearGradient>
  </defs>
  <rect width="32" height="32" rx="6" fill="url(#bg)"/>
  <!-- C with medical cross -->
  <path d="M21 10 C23 10 24.5 11 25.5 12.5 L23.5 14.5 C22.8 13.5 21.8 13 20.8 13 C18.2 13 16 15.2 16 18 C16 20.8 18.2 23 20.8 23 C22 23 23 22.4 23.8 21.5 L25.8 23.5 C24.5 25 22.8 26 20.5 26 C16.4 26 13 22.6 13 18 C13 13.4 16.4 10 20.5 10 Z" fill="white"/>
  <rect x="24" y="8" width="2" height="6" rx="1" fill="white" opacity="0.9"/>
  <rect x="22" y="10" width="6" height="2" rx="1" fill="white" opacity="0.9"/>
</svg>
